<svg width="33" height="34" viewBox="0 0 33 34" fill="none" xmlns="http://www.w3.org/2000/svg">
<path d="M9.17179 17H16.3436M16.3436 17H23.5154M16.3436 17V24.5M16.3436 17V9.5M2 26.0004V8.00038C2 5.90017 2 4.84929 2.39084 4.04713C2.73462 3.34151 3.2828 2.76824 3.95754 2.40873C4.7246 2 5.72949 2 7.73779 2H24.9501C26.9584 2 27.962 2 28.7291 2.40873C29.4038 2.76824 29.9529 3.34151 30.2966 4.04713C30.6875 4.84929 30.6875 5.89938 30.6875 7.99959V25.9996C30.6875 28.0998 30.6875 29.15 30.2966 29.9521C29.9529 30.6577 29.4038 31.2322 28.7291 31.5916C27.9628 32 26.9605 32 24.9562 32H7.73189C5.72752 32 4.72384 32 3.95754 31.5916C3.2828 31.2322 2.73462 30.6579 2.39084 29.9523C2 29.1502 2 28.1006 2 26.0004Z" stroke="#1E1E1E" stroke-width="3.0303" stroke-linecap="round" stroke-linejoin="round"/>
</svg>
