<svg width="28" height="27" viewBox="0 0 28 27" fill="none" xmlns="http://www.w3.org/2000/svg">
<path d="M6.77778 10.7222H21.2222M6.77778 16.2778H14M6.77778 1V3.77778M21.2222 1V3.77778M5.62222 26H22.3778C23.9957 26 24.8047 26 25.4227 25.6972C25.9662 25.431 26.4082 25.006 26.6851 24.4833C27 23.8892 27 23.1112 27 21.5556V8.22222C27 6.66651 27 5.88867 26.6851 5.29447C26.4082 4.77179 25.9662 4.34685 25.4227 4.08054C24.8047 3.77778 23.9957 3.77778 22.3778 3.77778H5.62222C4.0043 3.77778 3.19532 3.77778 2.57736 4.08054C2.03377 4.34685 1.59183 4.77179 1.31487 5.29447C1 5.88867 1 6.66651 1 8.22222V21.5556C1 23.1112 1 23.8892 1.31487 24.4833C1.59183 25.006 2.03377 25.431 2.57736 25.6972C3.19532 26 4.00429 26 5.62222 26Z" stroke="black" stroke-width="2" stroke-linecap="round" stroke-linejoin="round"/>
</svg>
