<svg width="33" height="34" viewBox="0 0 33 34" fill="none" xmlns="http://www.w3.org/2000/svg">
<path d="M9.50931 17H16.6811M16.6811 17H23.8529M16.6811 17V24.5M16.6811 17V9.5M2.33752 26.0004V8.00038C2.33752 5.90017 2.33752 4.84929 2.72837 4.04713C3.07215 3.34151 3.62032 2.76824 4.29506 2.40873C5.06212 2 6.06701 2 8.07531 2H25.2876C27.2959 2 28.2996 2 29.0666 2.40873C29.7413 2.76824 30.2905 3.34151 30.6342 4.04713C31.025 4.84929 31.025 5.89938 31.025 7.99959V25.9996C31.025 28.0998 31.025 29.15 30.6342 29.9521C30.2905 30.6577 29.7413 31.2322 29.0666 31.5916C28.3003 32 27.298 32 25.2937 32H8.06941C6.06504 32 5.06137 32 4.29506 31.5916C3.62032 31.2322 3.07215 30.6579 2.72837 29.9523C2.33752 29.1502 2.33752 28.1006 2.33752 26.0004Z" stroke="white" stroke-width="3.0303" stroke-linecap="round" stroke-linejoin="round"/>
</svg>
