<svg width="27" height="27" viewBox="0 0 27 27" fill="none" xmlns="http://www.w3.org/2000/svg">
<path d="M6.525 10.7222H20.3375M6.525 16.2778H13.4312M6.525 1V3.77778M20.3375 1V3.77778M5.42 26H21.4425C22.9896 26 23.7633 26 24.3542 25.6972C24.8739 25.431 25.2966 25.006 25.5614 24.4833C25.8625 23.8892 25.8625 23.1112 25.8625 21.5556V8.22222C25.8625 6.66651 25.8625 5.88867 25.5614 5.29447C25.2966 4.77179 24.8739 4.34685 24.3542 4.08054C23.7633 3.77778 22.9896 3.77778 21.4425 3.77778H5.42C3.87286 3.77778 3.09928 3.77778 2.50835 4.08054C1.98855 4.34685 1.56594 4.77179 1.3011 5.29447C1 5.88867 1 6.66651 1 8.22222V21.5556C1 23.1112 1 23.8892 1.3011 24.4833C1.56594 25.006 1.98855 25.431 2.50835 25.6972C3.09928 26 3.87285 26 5.42 26Z" stroke="#1E1E1E" stroke-width="2" stroke-linecap="round" stroke-linejoin="round"/>
</svg>
