<svg width="42" height="38" viewBox="0 0 42 38" fill="none" xmlns="http://www.w3.org/2000/svg">
<path d="M21 34.8334C23.3906 34.8334 25.641 34.4194 27.7512 33.5915C29.8615 32.7637 31.723 31.6202 33.3357 30.161C34.9485 28.7019 36.2124 27.0176 37.1274 25.1083C38.0425 23.199 38.5 21.163 38.5 19.0001C38.5 16.8372 38.0425 14.8011 37.1274 12.8918C36.2124 10.9825 34.9485 9.29828 33.3357 7.83912C31.723 6.37998 29.8586 5.23646 27.7426 4.40858C25.6266 3.58069 23.3734 3.16675 20.9828 3.16675C18.5923 3.16675 16.3419 3.58069 14.2316 4.40858C12.1213 5.23646 10.2627 6.37998 8.65563 7.83912C7.04861 9.29828 5.78758 10.9825 4.87255 12.8918C3.95752 14.8011 3.5 16.8372 3.5 19.0001C3.5 21.163 3.95752 23.199 4.87255 25.1083C5.78758 27.0176 7.05146 28.7019 8.6642 30.161C10.277 31.6202 12.1385 32.7637 14.2488 33.5915C16.359 34.4194 18.6095 34.8334 21 34.8334ZM21 32.1945C18.9755 32.1945 17.0825 31.853 15.3211 31.17C13.5596 30.487 12.0127 29.5427 10.6801 28.3371C9.34762 27.1315 8.30678 25.7319 7.55759 24.1382C6.80841 22.5445 6.43382 20.8318 6.43382 19.0001C6.43382 17.1684 6.80841 15.4557 7.55759 13.862C8.30678 12.2683 9.34476 10.8661 10.6716 9.6553C11.9984 8.44451 13.5425 7.50021 15.3039 6.82237C17.0653 6.14455 18.9583 5.80564 20.9828 5.80564C23.0073 5.80564 24.9003 6.14455 26.6617 6.82237C28.4232 7.50021 29.973 8.44451 31.3113 9.6553C32.6495 10.8661 33.6961 12.2683 34.451 13.862C35.2058 15.4557 35.5833 17.1684 35.5833 19.0001C35.5833 20.8318 35.2087 22.5445 34.4596 24.1382C33.7103 25.7319 32.6694 27.1315 31.3369 28.3371C30.0044 29.5427 28.4546 30.487 26.6874 31.17C24.9203 31.853 23.0245 32.1945 21 32.1945ZM15.1323 25.5662C15.5327 25.5662 15.8644 25.4369 16.1274 25.1782L20.9828 20.7696L25.8726 25.1782C26.1471 25.4369 26.4731 25.5662 26.8504 25.5662C27.2279 25.5662 27.5511 25.442 27.8199 25.1936C28.0887 24.9453 28.2231 24.6503 28.2231 24.3089C28.2231 23.9674 28.0858 23.6724 27.8113 23.424L22.9388 19.0156L27.8285 14.576C28.1029 14.3277 28.2401 14.0379 28.2401 13.7068C28.2401 13.3653 28.1057 13.0729 27.8369 12.8297C27.5681 12.5865 27.245 12.4649 26.8677 12.4649C26.513 12.4649 26.1985 12.5943 25.924 12.853L20.9828 17.277L16.0931 12.8685C15.8415 12.6202 15.5212 12.496 15.1323 12.496C14.7549 12.496 14.4318 12.615 14.163 12.853C13.8942 13.091 13.7598 13.3808 13.7598 13.7223C13.7598 14.0638 13.897 14.3536 14.1716 14.5916L19.0441 19.0156L14.1716 23.4396C13.897 23.6776 13.7598 23.9674 13.7598 24.3089C13.7598 24.6503 13.8942 24.9453 14.163 25.1936C14.4318 25.442 14.7549 25.5662 15.1323 25.5662Z" fill="white"/>
</svg>
