<svg width="35" height="32" viewBox="0 0 35 32" fill="none" xmlns="http://www.w3.org/2000/svg">
<path d="M17.5 31.6667C19.8906 31.6667 22.141 31.2527 24.2512 30.4248C26.3615 29.5969 28.223 28.4534 29.8357 26.9942C31.4485 25.5351 32.7124 23.8509 33.6274 21.9415C34.5425 20.0323 35 17.9962 35 15.8333C35 13.6705 34.5425 11.6344 33.6274 9.72506C32.7124 7.81576 31.4485 6.13153 29.8357 4.67237C28.223 3.21323 26.3586 2.06971 24.2426 1.24183C22.1266 0.413943 19.8734 0 17.4828 0C15.0923 0 12.8419 0.413943 10.7316 1.24183C8.62131 2.06971 6.76265 3.21323 5.15563 4.67237C3.54861 6.13153 2.28758 7.81576 1.37255 9.72506C0.457516 11.6344 0 13.6705 0 15.8333C0 17.9962 0.457516 20.0323 1.37255 21.9415C2.28758 23.8509 3.55146 25.5351 5.1642 26.9942C6.77696 28.4534 8.63847 29.5969 10.7488 30.4248C12.859 31.2527 15.1095 31.6667 17.5 31.6667ZM17.5 29.0277C15.4755 29.0277 13.5825 28.6862 11.8211 28.0033C10.0596 27.3203 8.51265 26.376 7.18013 25.1704C5.84762 23.9648 4.80678 22.5651 4.05759 20.9714C3.30841 19.3778 2.93382 17.6651 2.93382 15.8333C2.93382 14.0016 3.30841 12.2889 4.05759 10.6953C4.80678 9.10157 5.84476 7.69934 7.17156 6.48855C8.49835 5.27777 10.0425 4.33346 11.8039 3.65563C13.5653 2.9778 15.4583 2.63889 17.4828 2.63889C19.5073 2.63889 21.4003 2.9778 23.1617 3.65563C24.9232 4.33346 26.473 5.27777 27.8113 6.48855C29.1495 7.69934 30.1961 9.10157 30.951 10.6953C31.7058 12.2889 32.0833 14.0016 32.0833 15.8333C32.0833 17.6651 31.7087 19.3778 30.9596 20.9714C30.2103 22.5651 29.1694 23.9648 27.8369 25.1704C26.5044 26.376 24.9546 27.3203 23.1874 28.0033C21.4203 28.6862 19.5245 29.0277 17.5 29.0277ZM11.6323 22.3995C12.0327 22.3995 12.3644 22.2702 12.6274 22.0115L17.4828 17.6029L22.3726 22.0115C22.6471 22.2702 22.9731 22.3995 23.3504 22.3995C23.7279 22.3995 24.0511 22.2753 24.3199 22.0269C24.5887 21.7785 24.7231 21.4836 24.7231 21.1422C24.7231 20.8006 24.5858 20.5057 24.3113 20.2573L19.4388 15.8488L24.3285 11.4093C24.6029 11.1609 24.7401 10.8712 24.7401 10.54C24.7401 10.1985 24.6057 9.90616 24.3369 9.66298C24.0681 9.41979 23.745 9.29819 23.3677 9.29819C23.013 9.29819 22.6985 9.42755 22.424 9.68626L17.4828 14.1103L12.5931 9.70179C12.3415 9.45342 12.0212 9.32924 11.6323 9.32924C11.2549 9.32924 10.9318 9.44824 10.663 9.68626C10.3942 9.92428 10.2598 10.214 10.2598 10.5555C10.2598 10.897 10.397 11.1868 10.6716 11.4248L15.5441 15.8488L10.6716 20.2728C10.397 20.5108 10.2598 20.8006 10.2598 21.1422C10.2598 21.4836 10.3942 21.7785 10.663 22.0269C10.9318 22.2753 11.2549 22.3995 11.6323 22.3995Z" fill="black"/>
</svg>
