<svg width="34" height="27" viewBox="0 0 34 27" fill="none" xmlns="http://www.w3.org/2000/svg">
<path d="M2.01636 0H0V25.0458H2.01636V0Z" fill="black"/>
<path d="M4.18635 18.1821H1.00854V19.2793H4.18635V18.1821Z" fill="black"/>
<path d="M4.34005 14.1235H0V15.2202H4.34005V14.1235Z" fill="black"/>
<path d="M4.18635 10.061H1.00854V11.1582H4.18635V10.061Z" fill="black"/>
<path d="M4.34005 5.99829H0V7.09942H4.34005V5.99829Z" fill="black"/>
<path d="M4.18635 1.93994H1.00854V3.03708H4.18635V1.93994Z" fill="black"/>
<path d="M1.94086 24.4641L1.23462 25.0458L0.436688 25.7073L0.15632 25.9382C0.0593008 25.8405 0 25.7207 0 25.5874V24.4641H1.94086Z" fill="black"/>
<path d="M0.154053 25.9371C0.274779 26.0546 0.454674 26.1295 0.65542 26.1295H34.0001V24.4651H1.94151L0.154053 25.9371Z" fill="black"/>
<path d="M12.9729 22.2164C12.9729 22.6513 13.4037 23.0061 13.9317 23.0061H17.3466C17.8747 23.0061 18.3055 22.6514 18.3055 22.2164V16.7769L12.9729 19.2793V22.2164Z" fill="black"/>
<path d="M19.8536 18.2648V20.1789V22.2184C19.8536 22.6515 20.2838 23.0058 20.8098 23.0058H23.2862H24.2264C24.7523 23.0058 25.1826 22.6514 25.1826 22.2184V18.2645V13.5496L19.8535 16.0504V18.2648H19.8536Z" fill="black"/>
<path d="M26.7324 12.8223V19.6715V22.2185C26.7324 22.4207 26.827 22.6049 26.9804 22.7447C27.1556 22.9045 27.4081 23.0059 27.6886 23.0059H31.1053C31.6312 23.0059 32.0615 22.6515 32.0615 22.2185V19.6715V18.5604V10.3215L26.7324 12.8223Z" fill="black"/>
<path d="M7.05204 23.0059H10.4688C10.9947 23.0059 11.425 22.6516 11.425 22.2185V20.0059L6.1543 22.4792C6.28611 22.7845 6.6376 23.0059 7.05204 23.0059Z" fill="black"/>
<path d="M18.3039 15.2944V14.8142H12.9729V19.2793L18.3055 16.7769V15.2956L18.3039 15.2944Z" fill="black"/>
<path d="M19.8538 10.072V16.0503L25.1828 13.5495V10.072H19.8538Z" fill="black"/>
<path d="M32.0615 2.78857H26.7324V12.8225L32.0615 10.3217V2.78857Z" fill="black"/>
<path d="M11.425 13.2378V10.072H7.58092H6.09595V18.3357V22.2184C6.09595 22.3102 6.11886 22.397 6.15432 22.479L11.425 20.0057V18.3357V13.2378Z" fill="black"/>
<path opacity="0.13" d="M18.3039 15.2944V14.8142H12.9729V19.2793L18.3055 16.7769V15.2956L18.3039 15.2944Z" fill="#FEFDF0"/>
<path opacity="0.13" d="M19.8538 10.072V16.0503L25.1828 13.5495V10.072H19.8538Z" fill="#FEFDF0"/>
<path opacity="0.13" d="M32.0615 2.78857H26.7324V12.8225L32.0615 10.3217V2.78857Z" fill="#FEFDF0"/>
<path opacity="0.13" d="M11.425 13.2378V10.072H7.58092H6.09595V18.3357V22.2184C6.09595 22.3102 6.11886 22.397 6.15432 22.479L11.425 20.0057V18.3357V13.2378Z" fill="#FEFDF0"/>
</svg>
