<svg width="34" height="26" viewBox="0 0 34 26" fill="none" xmlns="http://www.w3.org/2000/svg">
<path d="M20.3333 16.25H25.3333M20.3333 9.91667H25.3333M12 9.125V7.54167M12 9.125H15.3335M12 9.125C9.00193 9.12494 8.66975 9.80935 8.66683 11.2348C8.6639 12.6603 8.66682 13.0833 12.0001 13.0833C15.3335 13.0833 15.3335 13.4087 15.3335 14.9306C15.3335 16.0743 15.3335 17.0417 12.0001 17.0417M12.0001 17.0417L12 18.625M12.0001 17.0417H8.66683M7.33333 24.1667H26.6667C28.5335 24.1667 29.467 24.1667 30.18 23.8215C30.8072 23.518 31.3172 23.0335 31.6367 22.4377C32 21.7603 32 20.8735 32 19.1V7.06667C32 5.29317 32 4.40641 31.6367 3.72903C31.3172 3.13318 30.8072 2.64874 30.18 2.34515C29.467 2 28.5335 2 26.6667 2H7.33333C5.4665 2 4.53307 2 3.82003 2.34515C3.19282 2.64874 2.68288 3.13318 2.36332 3.72903C2 4.40641 2 5.29316 2 7.06667V19.1C2 20.8735 2 21.7603 2.36332 22.4377C2.68288 23.0335 3.19282 23.518 3.82003 23.8215C4.53307 24.1667 5.46648 24.1667 7.33333 24.1667Z" stroke="black" stroke-width="2.496" stroke-linecap="round" stroke-linejoin="round"/>
</svg>
