<svg width="44" height="36" viewBox="0 0 44 36" fill="none" xmlns="http://www.w3.org/2000/svg">
<path d="M22 24L29.5 18M29.5 18L22 12M29.5 18H2M2 8.49604V8.4004C2 6.16018 2 5.03924 2.54497 4.1836C3.02432 3.43094 3.78868 2.81946 4.7295 2.43598C5.79905 2 7.20023 2 10.0005 2H34.0005C36.8007 2 38.199 2 39.2685 2.43598C40.2093 2.81946 40.9762 3.43094 41.4555 4.1836C42 5.0384 42 6.15798 42 8.39382V27.6072C42 29.843 42 30.961 41.4555 31.8158C40.9762 32.5684 40.2093 33.181 39.2685 33.5644C38.2 34 36.8025 34 34.0078 34H9.99227C7.19747 34 5.798 34 4.7295 33.5644C3.78868 33.181 3.02432 32.5678 2.54497 31.8152C2 30.9596 2 29.8402 2 27.6V27.5" stroke="white" stroke-width="2.80702" stroke-linecap="round" stroke-linejoin="round"/>
</svg>
