<svg width="42" height="38" viewBox="0 0 42 38" fill="none" xmlns="http://www.w3.org/2000/svg">
<path d="M21 34.8337C23.3906 34.8337 25.641 34.4197 27.7512 33.5918C29.8615 32.7639 31.723 31.6204 33.3357 30.1612C34.9485 28.7021 36.2124 27.0179 37.1274 25.1085C38.0425 23.1993 38.5 21.1632 38.5 19.0003C38.5 16.8375 38.0425 14.8014 37.1274 12.8921C36.2124 10.9828 34.9485 9.29852 33.3357 7.83937C31.723 6.38022 29.8586 5.23671 27.7426 4.40882C25.6266 3.58094 23.3734 3.16699 20.9828 3.16699C18.5923 3.16699 16.3419 3.58094 14.2316 4.40882C12.1213 5.23671 10.2627 6.38022 8.65563 7.83937C7.04861 9.29852 5.78758 10.9828 4.87255 12.8921C3.95752 14.8014 3.5 16.8375 3.5 19.0003C3.5 21.1632 3.95752 23.1993 4.87255 25.1085C5.78758 27.0179 7.05146 28.7021 8.6642 30.1612C10.277 31.6204 12.1385 32.7639 14.2488 33.5918C16.359 34.4197 18.6095 34.8337 21 34.8337ZM21 32.1947C18.9755 32.1947 17.0825 31.8532 15.3211 31.1702C13.5596 30.4873 12.0127 29.543 10.6801 28.3374C9.34762 27.1318 8.30678 25.7321 7.55759 24.1384C6.80841 22.5448 6.43382 20.8321 6.43382 19.0003C6.43382 17.1686 6.80841 15.4559 7.55759 13.8622C8.30678 12.2686 9.34476 10.8663 10.6716 9.65554C11.9984 8.44476 13.5425 7.50045 15.3039 6.82262C17.0653 6.14479 18.9583 5.80588 20.9828 5.80588C23.0073 5.80588 24.9003 6.14479 26.6617 6.82262C28.4232 7.50045 29.973 8.44476 31.3113 9.65554C32.6495 10.8663 33.6961 12.2686 34.451 13.8622C35.2058 15.4559 35.5833 17.1686 35.5833 19.0003C35.5833 20.8321 35.2087 22.5448 34.4596 24.1384C33.7103 25.7321 32.6694 27.1318 31.3369 28.3374C30.0044 29.543 28.4546 30.4873 26.6874 31.1702C24.9203 31.8532 23.0245 32.1947 21 32.1947ZM15.1323 25.5665C15.5327 25.5665 15.8644 25.4371 16.1274 25.1785L20.9828 20.7699L25.8726 25.1785C26.1471 25.4371 26.4731 25.5665 26.8504 25.5665C27.2279 25.5665 27.5511 25.4423 27.8199 25.1939C28.0887 24.9455 28.2231 24.6506 28.2231 24.3092C28.2231 23.9676 28.0858 23.6726 27.8113 23.4243L22.9388 19.0158L27.8285 14.5763C28.1029 14.3279 28.2401 14.0382 28.2401 13.707C28.2401 13.3655 28.1057 13.0732 27.8369 12.83C27.5681 12.5868 27.245 12.4652 26.8677 12.4652C26.513 12.4652 26.1985 12.5945 25.924 12.8533L20.9828 17.2773L16.0931 12.8688C15.8415 12.6204 15.5212 12.4962 15.1323 12.4962C14.7549 12.4962 14.4318 12.6152 14.163 12.8533C13.8942 13.0913 13.7598 13.381 13.7598 13.7225C13.7598 14.064 13.897 14.3538 14.1716 14.5918L19.0441 19.0158L14.1716 23.4398C13.897 23.6778 13.7598 23.9676 13.7598 24.3092C13.7598 24.6506 13.8942 24.9455 14.163 25.1939C14.4318 25.4423 14.7549 25.5665 15.1323 25.5665Z" fill="white"/>
</svg>
