<svg width="27" height="25" viewBox="0 0 27 25" fill="none" xmlns="http://www.w3.org/2000/svg">
<path fill-rule="evenodd" clip-rule="evenodd" d="M13.5 2.27572C7.46385 2.27572 2.57055 6.85332 2.57055 12.5001C2.57055 18.1468 7.46385 22.7244 13.5 22.7244C19.5362 22.7244 24.4295 18.1468 24.4295 12.5001C24.4295 6.85332 19.5362 2.27572 13.5 2.27572ZM0.583374 12.5001C0.583374 5.82664 6.36636 0.416748 13.5 0.416748C20.6337 0.416748 26.4167 5.82664 26.4167 12.5001C26.4167 19.1735 20.6337 24.5834 13.5 24.5834C6.36636 24.5834 0.583374 19.1735 0.583374 12.5001ZM12.4405 7.54282C12.4405 7.02948 12.8853 6.61333 13.4341 6.61333H13.566C14.1148 6.61333 14.5596 7.02948 14.5596 7.54282V7.66675C14.5596 8.17938 14.116 8.59523 13.568 8.59623L13.436 8.59648C13.1722 8.59696 12.9189 8.49925 12.7322 8.32488C12.5454 8.15052 12.4405 7.91382 12.4405 7.66699V7.54282ZM13.5 10.3313C14.0488 10.3313 14.4936 10.7474 14.4936 11.2608V17.4573C14.4936 17.9707 14.0488 18.3868 13.5 18.3868C12.9513 18.3868 12.5065 17.9707 12.5065 17.4573V11.2608C12.5065 10.7474 12.9513 10.3313 13.5 10.3313Z" fill="black" fill-opacity="0.8"/>
</svg>
