<svg width="32" height="32" viewBox="0 0 32 32" fill="none" xmlns="http://www.w3.org/2000/svg">
<path d="M13.5786 3.64205H7.29306C5.44032 3.64205 4.51394 3.64205 3.80629 4.00116C3.18381 4.31704 2.67773 4.82107 2.36057 5.44101C2 6.14581 2 7.06842 2 8.91364V24.7284C2 26.5736 2 27.4963 2.36057 28.2011C2.67773 28.821 3.18381 29.3251 3.80629 29.6409C4.51394 30 5.44032 30 7.29306 30H23.1722C25.025 30 25.9514 30 26.659 29.6409C27.2815 29.3251 27.7876 28.821 28.1047 28.2011C28.4653 27.4963 28.4653 26.5736 28.4653 24.7284V17.6447M21.0219 6.11311L25.7003 10.7726M13.1861 13.9172L24.1829 2.96501C25.4747 1.67833 27.5694 1.67833 28.8613 2.96501C30.1533 4.25169 30.1533 6.33781 28.8613 7.62449L17.511 18.9287C16.2512 20.1835 15.6214 20.8108 14.9038 21.3096C14.267 21.7526 13.5801 22.1193 12.8574 22.4026C12.0431 22.7219 11.1699 22.8974 9.4234 23.2484L8.61632 23.4105L8.69481 22.8633C8.97255 20.9271 9.11142 19.9589 9.4273 19.055C9.7076 18.2529 10.0905 17.4903 10.5666 16.7858C11.1031 15.9917 11.7974 15.3002 13.1861 13.9172Z" stroke="black" stroke-width="3.2" stroke-linecap="round" stroke-linejoin="round"/>
</svg>
