<svg width="28" height="34" viewBox="0 0 28 34" fill="none" xmlns="http://www.w3.org/2000/svg">
<path d="M26.2599 19.2237V3.49772C26.2599 2.67055 25.5811 2 24.7437 2H3.51625C2.67885 2 2 2.67055 2 3.49772V30.4566C2 31.2838 2.67885 31.9543 3.51625 31.9543H11.8556" stroke="black" stroke-width="3.1" stroke-linecap="round" stroke-linejoin="round"/>
<path d="M8.823 7.99084H19.4367" stroke="black" stroke-width="3.1" stroke-linecap="round" stroke-linejoin="round"/>
<path d="M8.823 13.9818H19.4367" stroke="black" stroke-width="3.1" stroke-linecap="round" stroke-linejoin="round"/>
<path d="M8.823 19.9725H13.3717" stroke="black" stroke-width="3.1" stroke-linecap="round" stroke-linejoin="round"/>
<path d="M25.4991 31.9544L22.8726 29.36M22.8726 29.36C23.5586 28.6824 23.9828 27.7464 23.9828 26.7124C23.9828 24.6445 22.2857 22.9681 20.1922 22.9681C18.0987 22.9681 16.4016 24.6445 16.4016 26.7124C16.4016 28.7803 18.0987 30.4567 20.1922 30.4567C21.239 30.4567 22.1866 30.0377 22.8726 29.36Z" stroke="black" stroke-width="3.1" stroke-linecap="round" stroke-linejoin="round"/>
</svg>
