<svg width="28" height="34" viewBox="0 0 28 34" fill="none" xmlns="http://www.w3.org/2000/svg">
<path d="M26.0002 19.2237V3.49772C26.0002 2.67055 25.3213 2 24.4839 2H3.25648C2.41908 2 1.74023 2.67055 1.74023 3.49772V30.4566C1.74023 31.2838 2.41908 31.9543 3.25648 31.9543H11.5958" stroke="white" stroke-width="3.1" stroke-linecap="round" stroke-linejoin="round"/>
<path d="M8.56323 7.99084H19.1769" stroke="white" stroke-width="3.1" stroke-linecap="round" stroke-linejoin="round"/>
<path d="M8.56323 13.9818H19.1769" stroke="white" stroke-width="3.1" stroke-linecap="round" stroke-linejoin="round"/>
<path d="M8.56323 19.9725H13.112" stroke="white" stroke-width="3.1" stroke-linecap="round" stroke-linejoin="round"/>
<path d="M25.2393 31.9544L22.6128 29.36M22.6128 29.36C23.2988 28.6824 23.7231 27.7464 23.7231 26.7124C23.7231 24.6445 22.0259 22.9681 19.9325 22.9681C17.839 22.9681 16.1418 24.6445 16.1418 26.7124C16.1418 28.7803 17.839 30.4567 19.9325 30.4567C20.9792 30.4567 21.9269 30.0377 22.6128 29.36Z" stroke="white" stroke-width="3.1" stroke-linecap="round" stroke-linejoin="round"/>
</svg>
