<svg width="32" height="29" viewBox="0 0 32 29" fill="none" xmlns="http://www.w3.org/2000/svg">
<path d="M16.3992 27.9766H1V5.04651H17.2097V10.4418H23.6935" stroke="white" stroke-width="2" stroke-miterlimit="10" stroke-linecap="round" stroke-linejoin="round"/>
<path d="M23.6867 10.4418H17.2029V5.04651L23.6867 10.4418Z" stroke="white" stroke-width="2" stroke-miterlimit="10" stroke-linecap="round" stroke-linejoin="round"/>
<path d="M23.6961 13.1395V10.4418H17.2122V5.04649H5.86548V1H22.0751L28.559 6.39532V14.4883" stroke="white" stroke-width="2" stroke-miterlimit="10" stroke-linecap="round" stroke-linejoin="round"/>
<path d="M28.5559 6.39532H22.072V1L28.5559 6.39532Z" stroke="white" stroke-width="2" stroke-miterlimit="10" stroke-linecap="round" stroke-linejoin="round"/>
<path d="M23.6867 10.4418H17.2029V5.04651L23.6867 10.4418Z" stroke="white" stroke-width="2" stroke-miterlimit="10" stroke-linecap="round" stroke-linejoin="round"/>
<path d="M7.48558 13.1395C9.27605 13.1395 10.7275 11.9317 10.7275 10.4418C10.7275 8.95192 9.27605 7.74414 7.48558 7.74414C5.69511 7.74414 4.24365 8.95192 4.24365 10.4418C4.24365 11.9317 5.69511 13.1395 7.48558 13.1395Z" stroke="white" stroke-width="2" stroke-miterlimit="10" stroke-linecap="round" stroke-linejoin="round"/>
<path d="M16.3992 23.2557H5.05249" stroke="white" stroke-width="2" stroke-miterlimit="10" stroke-linecap="round" stroke-linejoin="round"/>
<path d="M16.3992 19.8837H5.05249" stroke="white" stroke-width="2" stroke-miterlimit="10" stroke-linecap="round" stroke-linejoin="round"/>
<path d="M12.3468 16.5115H5.05249" stroke="white" stroke-width="2" stroke-miterlimit="10" stroke-linecap="round" stroke-linejoin="round"/>
<path d="M30.9825 22.379C30.7393 25.3464 27.8216 27.7743 24.2555 27.9766C20.5273 28.2464 17.3664 26.1557 16.5559 23.2557C16.4748 22.8511 16.3938 22.379 16.3938 21.9069C16.3938 21.2325 16.5559 20.4906 16.799 19.8836C17.7716 17.5232 20.5273 15.8372 23.6881 15.8372C25.5523 15.8372 27.2543 16.4441 28.551 17.3883C30.172 18.6023 31.1446 20.3557 30.9825 22.379Z" stroke="white" stroke-width="2" stroke-miterlimit="10" stroke-linecap="round" stroke-linejoin="round"/>
<path d="M23.6975 18.5348V19.2092" stroke="white" stroke-width="2" stroke-miterlimit="10" stroke-linecap="round" stroke-linejoin="round"/>
<path d="M23.6975 24.6046V25.279" stroke="white" stroke-width="2" stroke-miterlimit="10" stroke-linecap="round" stroke-linejoin="round"/>
<path d="M22.072 23.9301L22.3962 24.1999C22.7204 24.4697 23.1256 24.6045 23.5309 24.6045H23.693C24.5845 24.6045 25.314 23.9976 25.314 23.2557C25.314 22.5139 24.5845 21.9069 23.693 21.9069C22.8015 21.9069 22.072 21.2999 22.072 20.5581C22.072 19.8162 22.8015 19.2092 23.693 19.2092H23.8551C24.2603 19.2092 24.6656 19.3441 24.9898 19.6139L25.314 19.8836" stroke="white" stroke-width="2" stroke-miterlimit="10" stroke-linecap="round" stroke-linejoin="round"/>
</svg>
