<svg width="29" height="28" viewBox="0 0 29 28" fill="none" xmlns="http://www.w3.org/2000/svg">
<path d="M6.37789 19.5689H17.3368V20.9154H6.37789V19.5689ZM23.8597 10.1528H22.465V14.7708H12.9008V16.1157H22.465V20.7321H23.8597V16.1157V14.7708V10.1528ZM5.14029 10.156H16.0992V11.5026H5.14029V10.156ZM25.8689 0H3.13112C1.40504 6.54499e-05 0 1.35665 0 3.02321V24.9785C0 26.6451 1.40504 28 3.13112 28H25.8689C27.5967 28 29 26.6451 29 24.9785V3.02321C29.0017 1.35665 27.5967 0 25.8689 0ZM3.13112 24.9785V6.79291H25.8689L25.8723 24.9785H3.13112Z" fill="black"/>
</svg>
